PathFileType	4	(X/Y/Z)	 Patient4_HipIso.trc
DataRate	CameraRate	NumFrames	NumMarkers	Units	OrigDataRate	OrigDataStartFrame	OrigNumFrames
100	100	4	33	mm	100	1	2696
Frame#	Time	Sacral			L.Shoulder			Chest			R.Shoulder			Neck			R.ASIS			L.ASIS			R.Thigh.Superior			R.Thigh.Lateral			R.Thigh.Inferior			R.Patella			L.Thigh.Superior			L.Thigh.Lateral			L.Thigh.Inferior			L.Patella			L.Shank.Superior			L.Shank.Lateral			L.Shank.Inferior			R.Shank.Superior			R.Shank.Lateral			R.Shank.Inferior			R.Heel			R.Midfoot.Superior			R.Midfoot.Lateral			R.Toe			L.Heel			L.Midfoot.Lateral			L.Midfoot.Superior			L.Toe			L.Elbow			L.Wrist			R.Elbow			R.Wrist			
		X1	Y1	Z1	X2	Y2	Z2	X3	Y3	Z3	X4	Y4	Z4	X5	Y5	Z5	X6	Y6	Z6	X7	Y7	Z7	X8	Y8	Z8	X9	Y9	Z9	X10	Y10	Z10	X11	Y11	Z11	X12	Y12	Z12	X13	Y13	Z13	X14	Y14	Z14	X15	Y15	Z15	X16	Y16	Z16	X17	Y17	Z17	X18	Y18	Z18	X19	Y19	Z19	X20	Y20	Z20	X21	Y21	Z21	X22	Y22	Z22	X23	Y23	Z23	X24	Y24	Z24	X25	Y25	Z25	X26	Y26	Z26	X27	Y27	Z27	X28	Y28	Z28	X29	Y29	Z29	X30	Y30	Z30	X31	Y31	Z31	X32	Y32	Z32	X33	Y33	Z33	

1	0.0000	836.981990	1005.091300	555.026670	670.116700	1425.032100	765.012270	561.666440	1359.328400	608.510500	635.910580	1456.990400	441.130000	689.626890	1485.023100	622.408510	606.462890	934.124880	445.262080	630.472960	949.489750	716.100950	549.303530	747.396610	480.247920	610.179990	625.173520	415.349330	529.558650	582.585630	501.732940	520.107480	482.441070	485.181760	568.367250	741.860600	677.637150	647.188720	628.014280	726.858460	561.131710	548.533140	657.363280	558.188480	479.643310	642.808900	587.829960	406.069090	649.143370	678.657290	293.512600	703.864500	639.718630	183.314500	623.497440	572.232120	396.889370	478.722440	671.035030	312.516970	418.876920	643.454960	209.270260	476.136630	806.214480	71.886800	512.038510	630.901180	97.271840	467.613130	727.902160	47.858500	435.996120	521.694090	28.147930	435.996800	774.488040	32.280060	586.416990	696.256100	28.992600	664.434570	615.265690	89.770360	633.159000	485.127010	40.373590	652.726260	724.768430	1193.323900	1008.577800	485.342190	1251.113800	1071.846200	728.266300	1237.983600	195.670720	656.689030	1122.018100	-22.314700	
2	0.0100	836.724670	1004.355100	556.140870	672.172910	1424.730500	766.587950	563.311890	1359.945100	609.964050	638.218630	1457.418000	442.706570	691.823610	1484.909400	624.097960	605.928040	934.649780	446.266050	629.780520	949.580510	717.125120	546.666870	749.505250	481.039460	605.299990	626.346980	415.593570	525.381650	584.110350	500.839600	512.717590	483.974670	485.294190	567.708920	741.750000	678.334530	646.554500	627.765870	727.506100	560.695920	548.314330	657.963680	557.711730	479.414030	643.498230	587.560060	405.461820	649.218380	678.411380	293.362300	704.205570	639.918460	183.342090	624.131350	566.114930	398.014650	478.312290	666.409420	315.183260	418.923100	638.475400	211.242520	476.021240	802.381530	75.519470	512.686280	627.107790	98.641150	467.166020	724.888240	50.363570	436.148590	518.930480	27.909740	434.988770	774.460820	32.240300	586.468930	696.265870	28.972550	664.465700	615.271120	89.750610	633.183590	485.165100	40.381780	652.732540	724.865970	1191.977500	1009.534900	485.527470	1251.064200	1071.683700	729.423890	1238.484000	196.797240	657.883850	1122.875000	-21.429490	
3	0.0200	836.375490	1003.622100	557.428220	674.062440	1424.483800	768.187010	564.857600	1360.668900	611.451970	640.526610	1457.913700	444.216130	694.012450	1484.775900	625.738650	605.361150	935.176940	447.301060	629.128970	949.806400	718.067810	544.363280	751.293950	481.598510	600.607540	627.498350	415.677030	520.116090	586.140320	500.312680	506.396480	485.987430	484.391140	566.876460	741.603820	679.123900	645.944950	627.683170	728.245610	560.244870	548.100830	658.643130	557.329530	479.307890	644.099850	586.847350	405.531460	649.732730	678.147890	293.199980	704.640810	639.898380	183.175230	624.270940	559.485050	399.824160	478.033170	660.862430	317.100590	419.561950	632.777040	212.957140	475.800480	797.003480	78.287650	513.405520	621.803410	100.041200	466.426700	720.291080	52.443070	436.270970	514.614810	27.907260	433.301610	774.488100	32.246530	586.481260	696.256040	28.942780	664.492550	615.272520	89.734590	633.196960	485.158840	40.335580	652.749330	724.979550	1190.686500	1010.634400	485.637910	1250.864000	1071.519900	730.633670	1238.968300	197.892620	659.093570	1123.680800	-20.498290	
4	0.0300	836.094420	1003.072600	558.517330	675.984500	1424.258500	769.689270	566.545840	1361.354400	612.796140	642.902280	1458.457600	445.593570	696.194640	1484.689100	627.410710	604.889040	935.824220	448.202640	628.389830	950.040830	719.066410	541.950740	753.423580	481.897250	596.429810	628.833860	415.387420	514.781980	588.572690	499.617000	501.018460	488.330870	483.494450	566.299010	741.460880	679.855100	645.475950	627.617550	728.956480	559.897770	548.007570	659.496640	557.120360	479.304780	644.750120	586.390080	405.805660	650.516540	678.012820	293.040560	705.038390	639.769350	183.064580	624.362300	553.514530	401.396000	477.199070	654.807370	318.845790	419.728700	626.079470	214.654970	475.362670	789.774660	79.749650	514.030640	614.904050	101.370560	465.584900	713.705990	53.711110	436.294740	508.101350	28.842790	431.668820	774.500730	32.242100	586.460330	696.272460	28.958250	664.490050	615.285830	89.743250	633.221310	484.933440	40.419000	652.581360	725.002560	1189.434800	1011.599200	485.794590	1250.743000	1071.427100	731.877560	1239.445300	198.974430	660.247500	1124.556400	-19.580190	
